# xmcd
#
# Track frame offsets: 
#        150
#        15568
#        33295
#        50330
#        69804
#        85989
#        101530
#        119756
#        135973
#        152639
#        168717
#        197659
#        226805
#
# Disc length: 3045 seconds
#
# Revision: 3
# Processed by: cddbd v1.5.1PL0 Copyright (c) Steve Scherf et al.
# Submitted via: ExactAudioCopy v0.95a5
#
DISCID=9d0be30d
DTITLE=SHeDAISY - Sweet Right Here
DYEAR=2004
DGENRE=Country
TTITLE0=Passenger Seat
TTITLE1=5 4 3 2 Run
TTITLE2=360° Degrees of You
TTITLE3=Love Goes On
TTITLE4=I Dare You
TTITLE5=Good Together (Bucket and Chicken)
TTITLE6=Come Home Soon
TTITLE7=Don't Worry 'Bout a Thing
TTITLE8=Without a Sound
TTITLE9=Borrowed Home
TTITLE10=A Woman's Work
TTITLE11=He's a Hero
TTITLE12=Data Track
EXTD=
EXTT0=
EXTT1=
EXTT2=
EXTT3=
EXTT4=
EXTT5=
EXTT6=
EXTT7=
EXTT8=
EXTT9=
EXTT10=
EXTT11=
EXTT12=
PLAYORDER=
